<svg width="18" height="24" viewBox="0 0 18 24" fill="none" xmlns="http://www.w3.org/2000/svg">
<path fill-rule="evenodd" clip-rule="evenodd" d="M13.3883 13H9.69909V18C9.69909 18.55 9.36706 19 8.96125 19C8.55544 19 8.22341 18.55 8.22341 18V13H4.53422C4.12841 13 3.79639 12.55 3.79639 12C3.79639 11.45 4.12841 11 4.53422 11H8.22341V6C8.22341 5.45 8.55544 5 8.96125 5C9.36706 5 9.69909 5.45 9.69909 6V11H13.3883C13.7941 11 14.1261 11.45 14.1261 12C14.1261 12.55 13.7941 13 13.3883 13Z" fill="#18214D"/>
<path fill-rule="evenodd" clip-rule="evenodd" d="M13.3883 13H4.53422C4.12841 13 3.79639 12.55 3.79639 12C3.79639 11.45 4.12841 11 4.53422 11H13.3883C13.7941 11 14.1261 11.45 14.1261 12C14.1261 12.55 13.7941 13 13.3883 13Z" fill="#18214D"/>
</svg>
