<svg width="25" height="25" viewBox="0 0 25 25" fill="none" xmlns="http://www.w3.org/2000/svg">
<path fill-rule="evenodd" clip-rule="evenodd" d="M12.4858 24.1712C18.9238 24.1712 24.1429 18.9521 24.1429 12.5141C24.1429 6.07601 18.9238 0.856934 12.4858 0.856934C6.04769 0.856934 0.828613 6.07601 0.828613 12.5141C0.828613 18.9521 6.04769 24.1712 12.4858 24.1712Z" fill="#EFF2F6"/>
<path fill-rule="evenodd" clip-rule="evenodd" d="M8.23556 13.1215H15.0173L12.6616 15.4772C12.4248 15.714 12.4248 16.1025 12.6616 16.3393C12.8984 16.5761 13.2809 16.5761 13.5177 16.3393L16.9116 12.9454C17.1484 12.7086 17.1484 12.3261 16.9116 12.0893L13.5238 8.68931C13.287 8.45252 12.9045 8.45252 12.6677 8.68931C12.4309 8.92609 12.4309 9.30859 12.6677 9.54538L15.0173 11.9072H8.23556C7.90163 11.9072 7.62842 12.1804 7.62842 12.5143C7.62842 12.8482 7.90163 13.1215 8.23556 13.1215Z" fill="#18214D"/>
</svg>
