<svg width="24" height="25" viewBox="0 0 24 25" fill="none" xmlns="http://www.w3.org/2000/svg">
<path fill-rule="evenodd" clip-rule="evenodd" d="M12.0956 24.1712C18.5337 24.1712 23.7528 18.9521 23.7528 12.5141C23.7528 6.07601 18.5337 0.856934 12.0956 0.856934C5.65756 0.856934 0.438477 6.07601 0.438477 12.5141C0.438477 18.9521 5.65756 24.1712 12.0956 24.1712Z" fill="#EF972C"/>
<path fill-rule="evenodd" clip-rule="evenodd" d="M7.84591 13.1215H14.6277L12.272 15.4772C12.0352 15.714 12.0352 16.1025 12.272 16.3393C12.5088 16.5761 12.8913 16.5761 13.1281 16.3393L16.522 12.9454C16.7588 12.7086 16.7588 12.3261 16.522 12.0893L13.1341 8.68931C12.8973 8.45252 12.5148 8.45252 12.2781 8.68931C12.0413 8.92609 12.0413 9.30859 12.2781 9.54538L14.6277 11.9072H7.84591C7.51198 11.9072 7.23877 12.1804 7.23877 12.5143C7.23877 12.8482 7.51198 13.1215 7.84591 13.1215Z" fill="#18214D"/>
</svg>
