<svg width="25" height="25" viewBox="0 0 25 25" fill="none" xmlns="http://www.w3.org/2000/svg">
<path d="M12.9189 2.3584C7.41895 2.3584 2.91895 6.8484 2.91895 12.3784C2.91895 17.3784 6.57894 21.5284 11.3589 22.2784V15.2784H8.81895V12.3784H11.3589V10.1684C11.3589 7.6584 12.8489 6.2784 15.1389 6.2784C16.2289 6.2784 17.3689 6.4684 17.3689 6.4684V8.9384H16.1089C14.8689 8.9384 14.4789 9.7084 14.4789 10.4984V12.3784H17.2589L16.8089 15.2784H14.4789V22.2784C16.8354 21.9062 18.9812 20.7039 20.5289 18.8885C22.0766 17.073 22.9243 14.764 22.9189 12.3784C22.9189 6.8484 18.4189 2.3584 12.9189 2.3584Z" fill="white"/>
</svg>
