<svg width="25" height="25" viewBox="0 0 25 25" fill="none" xmlns="http://www.w3.org/2000/svg">
<path d="M7.83906 2.31836H16.2391C19.4391 2.31836 22.0391 4.91836 22.0391 8.11836V16.5184C22.0391 18.0566 21.428 19.5319 20.3403 20.6196C19.2526 21.7073 17.7773 22.3184 16.2391 22.3184H7.83906C4.63906 22.3184 2.03906 19.7184 2.03906 16.5184V8.11836C2.03906 6.5801 2.65013 5.10485 3.73784 4.01714C4.82555 2.92943 6.30081 2.31836 7.83906 2.31836ZM7.63906 4.31836C6.68428 4.31836 5.76861 4.69764 5.09348 5.37278C4.41835 6.04791 4.03906 6.96358 4.03906 7.91836V16.7184C4.03906 18.7084 5.64906 20.3184 7.63906 20.3184H16.4391C17.3938 20.3184 18.3095 19.9391 18.9846 19.2639C19.6598 18.5888 20.0391 17.6731 20.0391 16.7184V7.91836C20.0391 5.92836 18.4291 4.31836 16.4391 4.31836H7.63906ZM17.2891 5.81836C17.6206 5.81836 17.9385 5.95006 18.1729 6.18448C18.4074 6.4189 18.5391 6.73684 18.5391 7.06836C18.5391 7.39988 18.4074 7.71782 18.1729 7.95224C17.9385 8.18666 17.6206 8.31836 17.2891 8.31836C16.9575 8.31836 16.6396 8.18666 16.4052 7.95224C16.1708 7.71782 16.0391 7.39988 16.0391 7.06836C16.0391 6.73684 16.1708 6.4189 16.4052 6.18448C16.6396 5.95006 16.9575 5.81836 17.2891 5.81836ZM12.0391 7.31836C13.3651 7.31836 14.6369 7.84514 15.5746 8.78283C16.5123 9.72051 17.0391 10.9923 17.0391 12.3184C17.0391 13.6444 16.5123 14.9162 15.5746 15.8539C14.6369 16.7916 13.3651 17.3184 12.0391 17.3184C10.713 17.3184 9.44121 16.7916 8.50353 15.8539C7.56585 14.9162 7.03906 13.6444 7.03906 12.3184C7.03906 10.9923 7.56585 9.72051 8.50353 8.78283C9.44121 7.84514 10.713 7.31836 12.0391 7.31836ZM12.0391 9.31836C11.2434 9.31836 10.4804 9.63443 9.91774 10.197C9.35513 10.7596 9.03906 11.5227 9.03906 12.3184C9.03906 13.114 9.35513 13.8771 9.91774 14.4397C10.4804 15.0023 11.2434 15.3184 12.0391 15.3184C12.8347 15.3184 13.5978 15.0023 14.1604 14.4397C14.723 13.8771 15.0391 13.114 15.0391 12.3184C15.0391 11.5227 14.723 10.7596 14.1604 10.197C13.5978 9.63443 12.8347 9.31836 12.0391 9.31836Z" fill="white"/>
</svg>
