<svg width="25" height="25" viewBox="0 0 25 25" fill="none" xmlns="http://www.w3.org/2000/svg">
<path d="M22.939 6.31836C22.169 6.66836 21.339 6.89836 20.479 7.00836C21.359 6.47836 22.039 5.63836 22.359 4.62836C21.529 5.12836 20.609 5.47836 19.639 5.67836C18.849 4.81836 17.739 4.31836 16.479 4.31836C14.129 4.31836 12.209 6.23836 12.209 8.60836C12.209 8.94836 12.249 9.27836 12.319 9.58836C8.75904 9.40836 5.58904 7.69836 3.47904 5.10836C3.10904 5.73836 2.89904 6.47836 2.89904 7.25836C2.89904 8.74836 3.64904 10.0684 4.80904 10.8184C4.09904 10.8184 3.43904 10.6184 2.85904 10.3184V10.3484C2.85904 12.4284 4.33904 14.1684 6.29904 14.5584C5.66977 14.7306 5.00914 14.7545 4.36904 14.6284C4.64065 15.4808 5.17258 16.2268 5.89006 16.7613C6.60754 17.2958 7.47449 17.5921 8.36904 17.6084C6.85267 18.8088 4.97304 19.4577 3.03904 19.4484C2.69904 19.4484 2.35904 19.4284 2.01904 19.3884C3.91904 20.6084 6.17904 21.3184 8.59904 21.3184C16.479 21.3184 20.809 14.7784 20.809 9.10836C20.809 8.91836 20.809 8.73836 20.799 8.54836C21.639 7.94836 22.359 7.18836 22.939 6.31836Z" fill="white"/>
</svg>
